<?xml version="1.0" encoding="UTF-8" standalone="no"?>
<!-- Created with Inkscape (http://www.inkscape.org/) -->
<svg
   xmlns:svg="http://www.w3.org/2000/svg"
   xmlns="http://www.w3.org/2000/svg"
   version="1.0"
   width="921.25983"
   height="602.36218"
   id="svg1879">
  <defs
     id="defs1881" />
  <g
     id="layer1">
    <g
       transform="matrix(3.543307e-5,0,0,3.543307e-5,-65.55206,-70.86614)"
       style="fill-rule:evenodd"
       id="Ebene_x0020_1">
  
  <g
   id="_46988152">
   <rect
   width="25000000"
   height="15828500"
   x="2350000"
   y="2585750"
   style="fill:white;fill-opacity:1"
   id="_46993448" />

   <path
   d="M 10003200,6919570 L 9940480,6919570 L 8415040,12046890 L 11471630,12046890 L 10003200,6919570 z M 13343060,18380770 L 12495510,15507540 L 7456440,15507540 L 6674470,18097500 L 2349960,18097500 L 7664020,2586100 L 12779080,2586100 L 17776360,17415700 L 13343060,18380730 L 13343060,18380770 z "
   style="fill:#b20000"
   id="_87817112" />

   <path
   d="M 22383400,10975800 C 22383400,8160590 21016200,6973590 19119130,6973590 L 18203850,6973590 L 18322340,14958610 L 19138230,14958610 C 21111610,14958610 22383400,13853020 22383400,10975800 z M 27350040,2585750 L 27350040,18414250 L 19862290,18414250 L 19869850,18263270 C 23413300,18208520 26278670,15470440 26235050,10992800 C 26193270,6633770 23825280,3713750 19270930,3713750 L 14555790,3713750 L 14555790,2585790 L 27350090,2585790 L 27350040,2585750 z "
   style="fill:#ff4c00"
   id="_47203944" />

  </g>

 </g>
  </g>
</svg>
